<svg id="Layer_1" enable-background="new 0 0 511.98 511.98" height="512" viewBox="0 0 511.98 511.98" width="512" xmlns="http://www.w3.org/2000/svg"><g id="XMLID_1276_"><g id="XMLID_407_"><path id="XMLID_552_" d="m55.826 406.804c-6.591 6.591-10.221 15.354-10.221 24.676s3.63 18.085 10.221 24.676 15.354 10.221 24.675 10.221 18.084-3.63 24.675-10.221 10.221-15.354 10.221-24.676-3.63-18.085-10.221-24.676-15.354-10.221-24.675-10.221-18.085 3.63-24.675 10.221zm35.208 35.209c-2.813 2.813-6.554 4.363-10.533 4.363s-7.719-1.55-10.533-4.363c-5.809-5.808-5.809-15.259 0-21.066 2.813-2.813 6.554-4.363 10.533-4.363s7.719 1.55 10.533 4.363c5.808 5.807 5.808 15.258 0 21.066z"/><path id="XMLID_556_" d="m310.521 201.459c-3.906-3.903-10.237-3.904-14.142 0l-166.262 166.262c-3.905 3.905-3.905 10.237 0 14.143 1.953 1.952 4.512 2.929 7.071 2.929s5.119-.977 7.071-2.929l166.262-166.262c3.906-3.906 3.906-10.238 0-14.143z"/><path id="XMLID_557_" d="m501.336 68.385c-1.364-2.978-4.099-5.099-7.322-5.678-3.222-.58-6.525.455-8.841 2.771l-51.388 51.389h-38.67v-38.67l51.389-51.389c2.315-2.315 3.351-5.618 2.771-8.841-.58-3.224-2.701-5.958-5.678-7.322-21.522-9.857-45.28-12.948-68.705-8.938-23.964 4.104-45.747 15.388-62.995 32.635-16.022 16.022-26.988 36.154-31.714 58.219-4.149 19.373-3.345 39.381 2.292 58.255l-200.163 200.161c-21.948-.516-43.153 7.942-58.762 23.552-31.401 31.402-31.401 82.498 0 113.9 15.701 15.701 36.325 23.551 56.95 23.551s41.249-7.85 56.949-23.551c15.61-15.61 24.051-36.804 23.553-58.762l70.337-70.337c3.905-3.905 3.905-10.237 0-14.143-3.905-3.904-10.237-3.904-14.142 0l-73.479 73.479c-2.075 2.075-3.133 4.956-2.896 7.881 1.443 17.765-4.941 35.165-17.515 47.738-23.604 23.604-62.011 23.604-85.615 0s-23.604-62.011 0-85.615c12.573-12.574 29.975-18.951 47.738-17.515 2.927.241 5.806-.819 7.88-2.896l207.652-207.652c2.737-2.737 3.649-6.81 2.339-10.453-12.676-35.276-3.752-75.186 22.735-101.673 25.046-25.046 61.842-34.211 95.284-24.78l-43.279 43.279c-1.875 1.876-2.929 4.419-2.929 7.071v52.813c0 5.522 4.477 10 10 10h52.813c2.652 0 5.196-1.054 7.071-2.929l43.28-43.279c9.431 33.443.265 70.238-24.781 95.283-26.487 26.488-66.397 35.413-101.673 22.734-3.644-1.309-7.715-.398-10.453 2.34l-70.533 70.534c-3.905 3.905-3.905 10.237 0 14.143 3.905 3.904 10.237 3.904 14.142 0l66.186-66.188c18.874 5.638 38.881 6.444 58.254 2.293 22.065-4.726 42.196-15.691 58.218-31.714 17.247-17.247 28.532-39.03 32.635-62.995 4.014-23.421.923-47.179-8.935-68.701z"/><path id="XMLID_568_" d="m256.092 310.438c-2.64 0-5.21 1.07-7.07 2.93s-2.93 4.44-2.93 7.07c0 2.64 1.07 5.21 2.93 7.07 1.86 1.859 4.43 2.93 7.07 2.93 2.63 0 5.21-1.07 7.07-2.93s2.93-4.44 2.93-7.07-1.07-5.21-2.93-7.07c-1.86-1.859-4.44-2.93-7.07-2.93z"/><path id="XMLID_571_" d="m466.371 305.351c-1.786-3.094-5.087-5-8.66-5h-79.482c-3.573 0-6.874 1.906-8.66 5l-39.741 68.834c-1.787 3.094-1.787 6.906 0 10l39.741 68.833c1.786 3.094 5.087 5 8.66 5h79.482c3.573 0 6.874-1.906 8.66-5l39.741-68.833c1.787-3.094 1.787-6.906 0-10zm-14.433 132.667h-67.935l-33.968-58.833 33.968-58.834h67.935l33.967 58.834z"/><path id="XMLID_594_" d="m417.97 345.185c-18.748 0-34 15.252-34 34s15.252 34 34 34 34-15.252 34-34-15.252-34-34-34zm0 48c-7.72 0-14-6.28-14-14s6.28-14 14-14 14 6.28 14 14-6.28 14-14 14z"/></g></g></svg>